<?xml version="1.0" encoding="UTF-8" standalone="no"?>
<!-- Created with Inkscape (http://www.inkscape.org/) -->

<svg
   xmlns:dc="http://purl.org/dc/elements/1.1/"
   xmlns:cc="http://creativecommons.org/ns#"
   xmlns:rdf="http://www.w3.org/1999/02/22-rdf-syntax-ns#"
   xmlns:svg="http://www.w3.org/2000/svg"
   xmlns="http://www.w3.org/2000/svg"
   xmlns:sodipodi="http://sodipodi.sourceforge.net/DTD/sodipodi-0.dtd"
   xmlns:inkscape="http://www.inkscape.org/namespaces/inkscape"
   width="297mm"
   height="210mm"
   id="svg2985"
   version="1.1"
   inkscape:version="0.48.4 r9939"
   sodipodi:docname="MultiplicationRule.svg">
  <sodipodi:namedview
     inkscape:document-units="mm"
     pagecolor="#ffffff"
     bordercolor="#666666"
     borderopacity="1.0"
     inkscape:pageopacity="0.0"
     inkscape:pageshadow="2"
     inkscape:zoom="1.2216191"
     inkscape:cx="526.18109"
     inkscape:cy="372.04724"
     inkscape:current-layer="layer1"
     id="namedview2989"
     showgrid="true"
     inkscape:window-width="1920"
     inkscape:window-height="1056"
     inkscape:window-x="1600"
     inkscape:window-y="24"
     inkscape:window-maximized="1"
     inkscape:snap-grids="true">
    <inkscape:grid
       id="grid4133"
       type="xygrid" />
  </sodipodi:namedview>
  <defs
     id="defs2987">
    <marker
       style="overflow:visible;"
       id="Arrow1Mend"
       refX="0.0"
       refY="0.0"
       orient="auto"
       inkscape:stockid="Arrow1Mend">
      <path
         transform="scale(0.4) rotate(180) translate(10,0)"
         style="fill-rule:evenodd;stroke:#000000;stroke-width:1.0pt;"
         d="M 0.0,0.0 L 5.0,-5.0 L -12.5,0.0 L 5.0,5.0 L 0.0,0.0 z "
         id="path4150" />
    </marker>
    <marker
       style="overflow:visible;"
       id="Arrow1Lend"
       refX="0.0"
       refY="0.0"
       orient="auto"
       inkscape:stockid="Arrow1Lend">
      <path
         transform="scale(0.8) rotate(180) translate(12.5,0)"
         style="fill-rule:evenodd;stroke:#000000;stroke-width:1.0pt;"
         d="M 0.0,0.0 L 5.0,-5.0 L -12.5,0.0 L 5.0,5.0 L 0.0,0.0 z "
         id="path4144" />
    </marker>
    <marker
       style="overflow:visible"
       id="Arrow1Mend-2"
       refX="0"
       refY="0"
       orient="auto"
       inkscape:stockid="Arrow1Mend">
      <path
         transform="matrix(-0.4,0,0,-0.4,-4,0)"
         style="fill-rule:evenodd;stroke:#000000;stroke-width:1pt"
         d="M 0,0 5,-5 -12.5,0 5,5 0,0 z"
         id="path4150-0"
         inkscape:connector-curvature="0" />
    </marker>
    <marker
       style="overflow:visible"
       id="Arrow1Mend-2-4"
       refX="0"
       refY="0"
       orient="auto"
       inkscape:stockid="Arrow1Mend">
      <path
         transform="matrix(-0.4,0,0,-0.4,-4,0)"
         style="fill-rule:evenodd;stroke:#000000;stroke-width:1pt"
         d="M 0,0 5,-5 -12.5,0 5,5 0,0 z"
         id="path4150-0-9"
         inkscape:connector-curvature="0" />
    </marker>
    <marker
       style="overflow:visible"
       id="Arrow1Mend-2-2"
       refX="0"
       refY="0"
       orient="auto"
       inkscape:stockid="Arrow1Mend">
      <path
         transform="matrix(-0.4,0,0,-0.4,-4,0)"
         style="fill-rule:evenodd;stroke:#000000;stroke-width:1pt"
         d="M 0,0 5,-5 -12.5,0 5,5 0,0 z"
         id="path4150-0-0"
         inkscape:connector-curvature="0" />
    </marker>
    <marker
       style="overflow:visible"
       id="marker5463"
       refX="0"
       refY="0"
       orient="auto"
       inkscape:stockid="Arrow1Mend">
      <path
         transform="matrix(-0.4,0,0,-0.4,-4,0)"
         style="fill-rule:evenodd;stroke:#000000;stroke-width:1pt"
         d="M 0,0 5,-5 -12.5,0 5,5 0,0 z"
         id="path5465"
         inkscape:connector-curvature="0" />
    </marker>
    <marker
       style="overflow:visible"
       id="marker5467"
       refX="0"
       refY="0"
       orient="auto"
       inkscape:stockid="Arrow1Mend">
      <path
         transform="matrix(-0.4,0,0,-0.4,-4,0)"
         style="fill-rule:evenodd;stroke:#000000;stroke-width:1pt"
         d="M 0,0 5,-5 -12.5,0 5,5 0,0 z"
         id="path5469"
         inkscape:connector-curvature="0" />
    </marker>
    <marker
       style="overflow:visible"
       id="Arrow1Mend-2o"
       refX="0"
       refY="0"
       orient="auto"
       inkscape:stockid="Arrow1Mend-2o">
      <path
         transform="matrix(-0.4,0,0,-0.4,-4,0)"
         style="stroke:#003366;stroke-width:1pt;fill:#003366;fill-rule:evenodd"
         d="M 0,0 5,-5 -12.5,0 5,5 0,0 z"
         id="path5516"
         inkscape:connector-curvature="0" />
    </marker>
    <marker
       style="overflow:visible"
       id="Arrow1Mend-2Q"
       refX="0"
       refY="0"
       orient="auto"
       inkscape:stockid="Arrow1Mend-2Q">
      <path
         transform="matrix(-0.4,0,0,-0.4,-4,0)"
         style="stroke:#003366;stroke-width:1pt;fill:#003366;fill-rule:evenodd"
         d="M 0,0 5,-5 -12.5,0 5,5 0,0 z"
         id="path5519"
         inkscape:connector-curvature="0" />
    </marker>
    <marker
       style="overflow:visible;"
       id="Arrow1MendS"
       refX="0.0"
       refY="0.0"
       orient="auto"
       inkscape:stockid="Arrow1MendS">
      <path
         transform="scale(0.4) rotate(180) translate(10,0)"
         style="stroke:#003366;stroke-width:1.0pt;fill:#003366;fill-rule:evenodd"
         d="M 0.0,0.0 L 5.0,-5.0 L -12.5,0.0 L 5.0,5.0 L 0.0,0.0 z "
         id="path5522" />
    </marker>
    <marker
       style="overflow:visible"
       id="Arrow1Mend-2u"
       refX="0"
       refY="0"
       orient="auto"
       inkscape:stockid="Arrow1Mend-2u">
      <path
         transform="matrix(-0.4,0,0,-0.4,-4,0)"
         style="stroke:#003366;stroke-width:1pt;fill:#003366;fill-rule:evenodd"
         d="M 0,0 5,-5 -12.5,0 5,5 0,0 z"
         id="path5525"
         inkscape:connector-curvature="0" />
    </marker>
    <marker
       style="overflow:visible"
       id="Arrow1Mend-2B"
       refX="0"
       refY="0"
       orient="auto"
       inkscape:stockid="Arrow1Mend-2B">
      <path
         transform="matrix(-0.4,0,0,-0.4,-4,0)"
         style="stroke:#003366;stroke-width:1pt;fill:#003366;fill-rule:evenodd"
         d="M 0,0 5,-5 -12.5,0 5,5 0,0 z"
         id="path5528"
         inkscape:connector-curvature="0" />
    </marker>
    <marker
       style="overflow:visible;"
       id="Arrow1Mende"
       refX="0.0"
       refY="0.0"
       orient="auto"
       inkscape:stockid="Arrow1Mende">
      <path
         transform="scale(0.4) rotate(180) translate(10,0)"
         style="stroke:#003366;stroke-width:1.0pt;fill:#003366;fill-rule:evenodd"
         d="M 0.0,0.0 L 5.0,-5.0 L -12.5,0.0 L 5.0,5.0 L 0.0,0.0 z "
         id="path5531" />
    </marker>
    <marker
       style="overflow:visible"
       id="Arrow1Mend-21"
       refX="0"
       refY="0"
       orient="auto"
       inkscape:stockid="Arrow1Mend-21">
      <path
         transform="matrix(-0.4,0,0,-0.4,-4,0)"
         style="stroke:#003366;stroke-width:1pt;fill:#003366;fill-rule:evenodd"
         d="M 0,0 5,-5 -12.5,0 5,5 0,0 z"
         id="path5534"
         inkscape:connector-curvature="0" />
    </marker>
    <marker
       style="overflow:visible"
       id="Arrow1Mend-2t"
       refX="0"
       refY="0"
       orient="auto"
       inkscape:stockid="Arrow1Mend-2t">
      <path
         transform="matrix(-0.4,0,0,-0.4,-4,0)"
         style="stroke:#003366;stroke-width:1pt;fill:#003366;fill-rule:evenodd"
         d="M 0,0 5,-5 -12.5,0 5,5 0,0 z"
         id="path5537"
         inkscape:connector-curvature="0" />
    </marker>
  </defs>
  <metadata
     id="metadata2991">
    <rdf:RDF>
      <cc:Work
         rdf:about="">
        <dc:format>image/svg+xml</dc:format>
        <dc:type
           rdf:resource="http://purl.org/dc/dcmitype/StillImage" />
        <dc:title></dc:title>
      </cc:Work>
    </rdf:RDF>
  </metadata>
  <g
     id="layer1"
     inkscape:groupmode="layer"
     inkscape:label="Layer 1">
    <text
       sodipodi:linespacing="125%"
       id="text3318"
       y="234.09448"
       x="20"
       style="font-size:40px;font-style:normal;font-variant:normal;font-weight:normal;font-stretch:normal;line-height:125%;letter-spacing:0px;word-spacing:0px;fill:#003366;fill-opacity:1;stroke:none;font-family:Latin Modern Sans;-inkscape-font-specification:Latin Modern Sans"
       xml:space="preserve"><tspan
         style="font-size:12px;font-style:normal;font-variant:normal;font-weight:normal;font-stretch:normal;font-family:Latin Modern Sans;-inkscape-font-specification:Latin Modern Sans;fill:#003366"
         y="234.09448"
         x="20"
         id="tspan3320"
         sodipodi:role="line">Icecream</tspan></text>
    <path
       inkscape:connector-curvature="0"
       id="path4135"
       d="m 75,234.09448 65,-65"
       style="stroke-linejoin:miter;marker-end:url(#Arrow1MendS);stroke-opacity:1;stroke:#003366;stroke-linecap:butt;stroke-miterlimit:4;stroke-dasharray:none;stroke-width:0.99921262000000000;fill:none" />
    <path
       inkscape:connector-curvature="0"
       id="path4135-9"
       d="m 75.70711,233.69156 65,65"
       style="stroke-linejoin:miter;marker-end:url(#Arrow1Mende);stroke-opacity:1;stroke:#003366;stroke-linecap:butt;stroke-miterlimit:4;stroke-dasharray:none;stroke-width:0.99921262000000000;fill:none" />
    <path
       transform="matrix(0.17521903,0,0,0.17521903,165.4753,58.959466)"
       d="m 446.0484,358.77808 a 48.483524,48.483524 0 1 1 -96.96704,0 48.483524,48.483524 0 1 1 96.96704,0 z"
       sodipodi:ry="48.483524"
       sodipodi:rx="48.483524"
       sodipodi:cy="358.77808"
       sodipodi:cx="397.56488"
       id="path3035-2-9"
       style="fill:#6699cc;stroke:#336699"
       sodipodi:type="arc" />
    <path
       transform="matrix(0.17521903,0,0,0.17521903,165.4753,103.52736)"
       d="m 446.0484,358.77808 a 48.483524,48.483524 0 1 1 -96.96704,0 48.483524,48.483524 0 1 1 96.96704,0 z"
       sodipodi:ry="48.483524"
       sodipodi:rx="48.483524"
       sodipodi:cy="358.77808"
       sodipodi:cx="397.56488"
       id="path3035-2-3"
       style="fill:#6699cc;stroke:#336699"
       sodipodi:type="arc" />
    <path
       transform="matrix(0.17521903,0,0,0.17521903,165.4753,148.09521)"
       d="m 446.0484,358.77808 a 48.483524,48.483524 0 1 1 -96.96704,0 48.483524,48.483524 0 1 1 96.96704,0 z"
       sodipodi:ry="48.483524"
       sodipodi:rx="48.483524"
       sodipodi:cy="358.77808"
       sodipodi:cx="397.56488"
       id="path3035-2-5"
       style="fill:#6699cc;stroke:#336699"
       sodipodi:type="arc" />
    <path
       transform="matrix(0.17521903,0,0,0.17521903,165.4753,193.86896)"
       d="m 446.0484,358.77808 a 48.483524,48.483524 0 1 1 -96.96704,0 48.483524,48.483524 0 1 1 96.96704,0 z"
       sodipodi:ry="48.483524"
       sodipodi:rx="48.483524"
       sodipodi:cy="358.77808"
       sodipodi:cx="397.56488"
       id="path3035-2-9-7"
       style="fill:#6699cc;stroke:#336699"
       sodipodi:type="arc" />
    <path
       transform="matrix(0.17521903,0,0,0.17521903,165.4753,238.43686)"
       d="m 446.0484,358.77808 a 48.483524,48.483524 0 1 1 -96.96704,0 48.483524,48.483524 0 1 1 96.96704,0 z"
       sodipodi:ry="48.483524"
       sodipodi:rx="48.483524"
       sodipodi:cy="358.77808"
       sodipodi:cx="397.56488"
       id="path3035-2-3-7"
       style="fill:#6699cc;stroke:#336699"
       sodipodi:type="arc" />
    <path
       transform="matrix(0.17521903,0,0,0.17521903,165.4753,283.00471)"
       d="m 446.0484,358.77808 a 48.483524,48.483524 0 1 1 -96.96704,0 48.483524,48.483524 0 1 1 96.96704,0 z"
       sodipodi:ry="48.483524"
       sodipodi:rx="48.483524"
       sodipodi:cy="358.77808"
       sodipodi:cx="397.56488"
       id="path3035-2-5-5"
       style="fill:#6699cc;stroke:#336699"
       sodipodi:type="arc" />
    <path
       inkscape:connector-curvature="0"
       id="path4854"
       d="m 150,167.09448 75,-43"
       style="stroke-linejoin:miter;marker-end:url(#Arrow1Mend-21);stroke-opacity:1;stroke:#003366;stroke-linecap:butt;stroke-width:1px;fill:none" />
    <path
       inkscape:connector-curvature="0"
       id="path5228"
       d="m 150,167.09448 75,0"
       style="stroke-linejoin:miter;marker-end:url(#Arrow1Mend-2t);stroke-opacity:1;stroke:#003366;stroke-linecap:butt;stroke-width:1px;fill:none" />
    <path
       inkscape:connector-curvature="0"
       id="path4854-5"
       d="m 150.60551,167.24974 75,43"
       style="stroke-linejoin:miter;marker-end:url(#Arrow1Mend-2o);stroke-opacity:1;stroke:#003366;stroke-linecap:butt;stroke-width:1px;fill:none" />
    <path
       inkscape:connector-curvature="0"
       id="path4854-9"
       d="m 149.59329,300.42371 75,-43"
       style="stroke-linejoin:miter;marker-end:url(#Arrow1Mend-2B);stroke-opacity:1;stroke:#003366;stroke-linecap:butt;stroke-width:1px;fill:none" />
    <path
       inkscape:connector-curvature="0"
       id="path5228-8"
       d="m 149.59329,300.42371 75,0"
       style="stroke-linejoin:miter;marker-end:url(#Arrow1Mend-2Q);stroke-opacity:1;stroke:#003366;stroke-linecap:butt;stroke-width:1px;fill:none" />
    <path
       inkscape:connector-curvature="0"
       id="path4854-5-1"
       d="m 150.1988,300.57897 75,43"
       style="stroke-linejoin:miter;marker-end:url(#Arrow1Mend-2u);stroke-opacity:1;stroke:#003366;stroke-linecap:butt;stroke-width:1px;fill:none" />
    <path
       transform="matrix(0.17521903,0,0,0.17521903,5.58278,170.07017)"
       d="m 446.0484,358.77808 a 48.483524,48.483524 0 1 1 -96.96704,0 48.483524,48.483524 0 1 1 96.96704,0 z"
       sodipodi:ry="48.483524"
       sodipodi:rx="48.483524"
       sodipodi:cy="358.77808"
       sodipodi:cx="397.56488"
       id="path3035"
       style="fill:#6699cc;stroke:#003366"
       sodipodi:type="arc" />
    <path
       transform="matrix(0.17521903,0,0,0.17521903,80.71631,103.93684)"
       d="m 446.0484,358.77808 a 48.483524,48.483524 0 1 1 -96.96704,0 48.483524,48.483524 0 1 1 96.96704,0 z"
       sodipodi:ry="48.483524"
       sodipodi:rx="48.483524"
       sodipodi:cy="358.77808"
       sodipodi:cx="397.56488"
       id="path3035-2"
       style="fill:#6699cc;stroke:#336699"
       sodipodi:type="arc" />
    <path
       transform="matrix(0.17521903,0,0,0.17521903,80.71631,237.00504)"
       d="m 446.0484,358.77808 a 48.483524,48.483524 0 1 1 -96.96704,0 48.483524,48.483524 0 1 1 96.96704,0 z"
       sodipodi:ry="48.483524"
       sodipodi:rx="48.483524"
       sodipodi:cy="358.77808"
       sodipodi:cx="397.56488"
       id="path3035-5"
       style="fill:#6699cc;stroke:#336699"
       sodipodi:type="arc" />
    <text
       sodipodi:linespacing="125%"
       id="text3318-9"
       y="215.03052"
       x="-81.390984"
       style="font-size:40px;font-style:normal;font-variant:normal;font-weight:normal;font-stretch:normal;line-height:125%;letter-spacing:0px;word-spacing:0px;fill:#003366;fill-opacity:1;stroke:none;font-family:Latin Modern Sans;-inkscape-font-specification:Latin Modern Sans"
       xml:space="preserve"
       transform="matrix(0.69549422,-0.71853169,0.71853169,0.69549422,0,0)"><tspan
         style="font-size:12px;font-style:normal;font-variant:normal;font-weight:normal;font-stretch:normal;fill:#003366;font-family:Latin Modern Sans;-inkscape-font-specification:Latin Modern Sans"
         y="215.03052"
         x="-81.390984"
         id="tspan3320-3"
         sodipodi:role="line">Cone</tspan></text>
    <text
       sodipodi:linespacing="125%"
       id="text3318-2"
       y="108.80151"
       x="253.28697"
       style="font-size:40px;font-style:normal;font-variant:normal;font-weight:normal;font-stretch:normal;line-height:125%;letter-spacing:0px;word-spacing:0px;fill:#003366;fill-opacity:1;stroke:none;font-family:Latin Modern Sans;-inkscape-font-specification:Latin Modern Sans"
       xml:space="preserve"
       transform="matrix(0.70315824,0.7110334,-0.7110334,0.70315824,0,0)"><tspan
         style="font-size:12px;font-style:normal;font-variant:normal;font-weight:normal;font-stretch:normal;fill:#003366;font-family:Latin Modern Sans;-inkscape-font-specification:Latin Modern Sans"
         y="108.80151"
         x="253.28697"
         id="tspan3320-7"
         sodipodi:role="line">Waffle</tspan></text>
    <text
       sodipodi:linespacing="125%"
       id="text3318-27"
       y="214.92432"
       x="76.696663"
       style="font-size:40px;font-style:normal;font-variant:normal;font-weight:normal;font-stretch:normal;line-height:125%;letter-spacing:0px;word-spacing:0px;fill:#003366;fill-opacity:1;stroke:none;font-family:Latin Modern Sans;-inkscape-font-specification:Latin Modern Sans"
       xml:space="preserve"
       transform="matrix(0.88210769,-0.47104779,0.47104779,0.88210769,0,0)"><tspan
         style="font-size:12px;font-style:normal;font-variant:normal;font-weight:normal;font-stretch:normal;fill:#003366;font-family:Latin Modern Sans;-inkscape-font-specification:Latin Modern Sans"
         y="214.92432"
         x="76.696663"
         id="tspan3320-4"
         sodipodi:role="line">Vanilla</tspan></text>
    <text
       sodipodi:linespacing="125%"
       id="text3318-4"
       y="164.09448"
       x="170"
       style="font-size:40px;font-style:normal;font-variant:normal;font-weight:normal;font-stretch:normal;line-height:125%;letter-spacing:0px;word-spacing:0px;fill:#003366;fill-opacity:1;stroke:none;font-family:Latin Modern Sans;-inkscape-font-specification:Latin Modern Sans"
       xml:space="preserve"><tspan
         style="font-size:12px;font-style:normal;font-variant:normal;font-weight:normal;font-stretch:normal;fill:#003366;font-family:Latin Modern Sans;-inkscape-font-specification:Latin Modern Sans"
         y="164.09448"
         x="170"
         id="tspan3320-2"
         sodipodi:role="line">Strawberry</tspan></text>
    <text
       sodipodi:linespacing="125%"
       id="text3318-8"
       y="68.207184"
       x="232.15266"
       style="font-size:40px;font-style:normal;font-variant:normal;font-weight:normal;font-stretch:normal;line-height:125%;letter-spacing:0px;word-spacing:0px;fill:#003366;fill-opacity:1;stroke:none;font-family:Latin Modern Sans;-inkscape-font-specification:Latin Modern Sans"
       xml:space="preserve"
       transform="matrix(0.86617808,0.49973546,-0.49973546,0.86617808,0,0)"><tspan
         style="font-size:12px;font-style:normal;font-variant:normal;font-weight:normal;font-stretch:normal;fill:#003366;font-family:Latin Modern Sans;-inkscape-font-specification:Latin Modern Sans"
         y="68.207184"
         x="232.15266"
         id="tspan3320-73"
         sodipodi:role="line">Chocolate</tspan></text>
    <text
       sodipodi:linespacing="125%"
       id="text3318-27-7"
       y="334.00888"
       x="13.105218"
       style="font-size:40px;font-style:normal;font-variant:normal;font-weight:normal;font-stretch:normal;line-height:125%;letter-spacing:0px;word-spacing:0px;fill:#003366;fill-opacity:1;stroke:none;font-family:Latin Modern Sans;-inkscape-font-specification:Latin Modern Sans"
       xml:space="preserve"
       transform="matrix(0.88210769,-0.47104779,0.47104779,0.88210769,0,0)"><tspan
         style="font-size:12px;font-style:normal;font-variant:normal;font-weight:normal;font-stretch:normal;fill:#003366;font-family:Latin Modern Sans;-inkscape-font-specification:Latin Modern Sans"
         y="334.00888"
         x="13.105218"
         id="tspan3320-4-2"
         sodipodi:role="line">Vanilla</tspan></text>
    <text
       sodipodi:linespacing="125%"
       id="text3318-4-8"
       y="299.09448"
       x="170"
       style="font-size:40px;font-style:normal;font-variant:normal;font-weight:normal;font-stretch:normal;line-height:125%;letter-spacing:0px;word-spacing:0px;fill:#003366;fill-opacity:1;stroke:none;font-family:Latin Modern Sans;-inkscape-font-specification:Latin Modern Sans"
       xml:space="preserve"><tspan
         style="font-size:12px;font-style:normal;font-variant:normal;font-weight:normal;font-stretch:normal;fill:#003366;font-family:Latin Modern Sans;-inkscape-font-specification:Latin Modern Sans"
         y="299.09448"
         x="170"
         id="tspan3320-2-2"
         sodipodi:role="line">Strawberry</tspan></text>
    <text
       sodipodi:linespacing="125%"
       id="text3318-8-7"
       y="185.14122"
       x="299.61697"
       style="font-size:40px;font-style:normal;font-variant:normal;font-weight:normal;font-stretch:normal;line-height:125%;letter-spacing:0px;word-spacing:0px;fill:#003366;fill-opacity:1;stroke:none;font-family:Latin Modern Sans;-inkscape-font-specification:Latin Modern Sans"
       xml:space="preserve"
       transform="matrix(0.86617808,0.49973546,-0.49973546,0.86617808,0,0)"><tspan
         style="font-size:12px;font-style:normal;font-variant:normal;font-weight:normal;font-stretch:normal;fill:#003366;font-family:Latin Modern Sans;-inkscape-font-specification:Latin Modern Sans"
         y="185.14122"
         x="299.61697"
         id="tspan3320-73-6"
         sodipodi:role="line">Chocolate</tspan></text>
  </g>
</svg>
