<?xml version="1.0" encoding="UTF-8" standalone="no"?>
<!-- Created with Inkscape (http://www.inkscape.org/) -->

<svg
   xmlns:ns0="http://www.iki.fi/pav/software/textext/"
   xmlns:dc="http://purl.org/dc/elements/1.1/"
   xmlns:cc="http://creativecommons.org/ns#"
   xmlns:rdf="http://www.w3.org/1999/02/22-rdf-syntax-ns#"
   xmlns:svg="http://www.w3.org/2000/svg"
   xmlns="http://www.w3.org/2000/svg"
   xmlns:xlink="http://www.w3.org/1999/xlink"
   xmlns:sodipodi="http://sodipodi.sourceforge.net/DTD/sodipodi-0.dtd"
   xmlns:inkscape="http://www.inkscape.org/namespaces/inkscape"
   width="297mm"
   height="210mm"
   id="svg2985"
   version="1.1"
   inkscape:version="0.48.4 r9939"
   sodipodi:docname="New document 2.2015_01_01_13_51_40.0.svg">
  <sodipodi:namedview
     inkscape:document-units="mm"
     pagecolor="#ffffff"
     bordercolor="#666666"
     borderopacity="1.0"
     inkscape:pageopacity="0.0"
     inkscape:pageshadow="2"
     inkscape:zoom="9.7150951"
     inkscape:cx="290.21197"
     inkscape:cy="644.33884"
     inkscape:current-layer="layer1"
     id="namedview2989"
     showgrid="false"
     inkscape:window-width="1600"
     inkscape:window-height="876"
     inkscape:window-x="0"
     inkscape:window-y="24"
     inkscape:window-maximized="1" />
  <defs
     id="defs2987" />
  <metadata
     id="metadata2991">
    <rdf:RDF>
      <cc:Work
         rdf:about="">
        <dc:format>image/svg+xml</dc:format>
        <dc:type
           rdf:resource="http://purl.org/dc/dcmitype/StillImage" />
        <dc:title></dc:title>
      </cc:Work>
    </rdf:RDF>
  </metadata>
  <g
     inkscape:label="Layer 1"
     inkscape:groupmode="layer"
     id="layer1">
    <rect
       style="fill:#aaccee;fill-rule:evenodd;stroke:#336699;stroke-width:0.43001226px;stroke-linecap:butt;stroke-linejoin:miter;stroke-opacity:1"
       id="rect2994"
       width="98.557739"
       height="61.812328"
       x="241.62227"
       y="75.247238" />
    <path
       sodipodi:type="arc"
       style="fill:#6699cc;stroke:#336699"
       id="path3035"
       sodipodi:cx="397.56488"
       sodipodi:cy="358.77808"
       sodipodi:rx="48.483524"
       sodipodi:ry="48.483524"
       d="m 446.0484,358.77808 a 48.483524,48.483524 0 1 1 -96.96704,0 48.483524,48.483524 0 1 1 96.96704,0 z"
       transform="matrix(0.48947547,0,0,0.48947547,96.22006,-69.459668)" />
    <g
       style="fill:#003366"
       ns0:text="$\\mathcal{A}$"
       ns0:preamble="/home/amitmohanty/Documents/inkscape-preamable.tex"
       transform="translate(62.430726,-25.901981)"
       id="g3062">
      <defs
         id="defs3064">
        <g
           id="g3066">
          <symbol
             style="overflow:visible"
             overflow="visible"
             id="textext-1d0c7496-0">
            <path
               inkscape:connector-curvature="0"
               style="stroke:none"
               d=""
               id="path3069" />
          </symbol>
          <symbol
             style="overflow:visible"
             overflow="visible"
             id="textext-1d0c7496-1">
            <path
               inkscape:connector-curvature="0"
               style="stroke:none"
               d="m 5.9375,-1.640625 c 0.046875,0.625 0.15625,1.078125 0.21875,1.265625 0.109375,0.453125 0.15625,0.671875 0.578125,0.671875 0.453125,0 1.21875,-0.453125 1.21875,-0.640625 0,-0.0625 -0.03125,-0.078125 -0.09375,-0.078125 -0.125,0 -0.328125,0.109375 -0.359375,0.125 C 7.421875,-0.25 7.40625,-0.25 7.390625,-0.25 7.109375,-0.25 7.046875,-0.515625 6.921875,-1.109375 6.859375,-1.453125 6.765625,-1.84375 6.6875,-3.203125 6.625,-4.234375 6.578125,-5.25 6.578125,-6.265625 6.578125,-6.5 6.59375,-6.765625 6.59375,-7 c 0,-0.15625 0,-0.203125 -0.109375,-0.203125 -0.140625,0 -0.546875,0.171875 -0.734375,0.4375 L 5.6875,-6.65625 c -0.796875,1.6875 -1.53125,2.890625 -2.046875,3.703125 -0.59375,0.90625 -1.625,2.53125 -2.171875,2.53125 -0.359375,0 -0.671875,-0.234375 -0.765625,-0.59375 0,-0.015625 -0.03125,-0.078125 -0.0625,-0.078125 -0.15625,0 -0.375,0.46875 -0.375,0.75 0,0.40625 0.4375,0.84375 0.90625,0.84375 C 1.859375,0.5 3,-1.296875 3.21875,-1.640625 z m -0.203125,-4.328125 0,0.578125 c 0,0.578125 0.015625,1.15625 0.046875,1.734375 0.015625,0.203125 0.046875,0.9375 0.09375,1.46875 l -1.8125,0 c -0.171875,0 -0.3125,0 -0.578125,0.15625 0.703125,-1.078125 1.28125,-2.109375 1.34375,-2.21875 0.5,-0.890625 0.765625,-1.46875 0.890625,-1.71875 z m 0,0"
               id="path3072" />
          </symbol>
        </g>
      </defs>
      <g
         style="fill:#003366"
         id="textext-1d0c7496-2">
        <g
           style="fill:#003366;fill-opacity:1"
           id="g3075">
          <use
             style="fill:#003366"
             height="744.09448"
             width="1052.3622"
             xlink:href="#textext-1d0c7496-1"
             x="223.43201"
             y="134.765"
             id="use3077" />
        </g>
      </g>
    </g>
    <g
       id="g3162"
       style="fill:#003366"
       transform="translate(19.393926,-51.54302)"
       ns0:preamble="/home/amitmohanty/Documents/inkscape-preamable.tex"
       ns0:text="$\\mathcal{S}$">
      <defs
         id="defs3164">
        <g
           id="g3166">
          <symbol
             id="textext-35e23fdb-0"
             overflow="visible"
             style="overflow:visible">
            <path
               id="path3169"
               d=""
               style="stroke:none"
               inkscape:connector-curvature="0" />
          </symbol>
          <symbol
             id="textext-35e23fdb-1"
             overflow="visible"
             style="overflow:visible">
            <path
               id="path3172"
               d="m 1.140625,-2.1875 c 0.125,-0.046875 0.46875,-0.265625 0.46875,-0.40625 0,-0.0625 -0.046875,-0.0625 -0.109375,-0.0625 -0.34375,0 -1.328125,0.421875 -1.328125,1.421875 0,0.71875 0.8125,1.453125 2.03125,1.453125 1.625,0 3.515625,-1.125 3.515625,-2.484375 0,-0.9375 -1,-1.40625 -1.8125,-1.765625 C 3.203125,-4.34375 2.75,-4.75 2.75,-5.328125 2.75,-5.53125 2.84375,-5.921875 3.15625,-6.1875 3.453125,-6.453125 4,-6.484375 4.140625,-6.484375 c 0.109375,0 0.53125,0.015625 0.96875,0.203125 0.1875,0.09375 0.4375,0.203125 0.4375,0.640625 0,0.140625 0,0.1875 -0.03125,0.296875 C 5.5,-5.3125 5.5,-5.28125 5.5,-5.25 c 0,0.078125 0.046875,0.078125 0.09375,0.078125 0.125,0 0.375,-0.109375 0.5625,-0.265625 0.140625,-0.109375 0.25,-0.234375 0.25,-0.625 0,-0.484375 -0.265625,-0.625 -0.53125,-0.75 -0.46875,-0.21875 -0.9375,-0.21875 -1.0625,-0.21875 -1.3125,0 -2.90625,1 -2.90625,2.140625 0,0.828125 0.859375,1.234375 1.34375,1.4375 0.703125,0.328125 1.609375,0.78125 1.609375,1.625 0,0.65625 -0.484375,1.5 -2,1.5 -1.015625,0 -1.828125,-0.65625 -1.828125,-1.34375 0,-0.171875 0.046875,-0.359375 0.109375,-0.515625 z m 0,0"
               style="stroke:none"
               inkscape:connector-curvature="0" />
          </symbol>
        </g>
      </defs>
      <g
         id="textext-35e23fdb-2"
         style="fill:#003366">
        <g
           id="g3175"
           style="fill:#003366;fill-opacity:1">
          <use
             id="use3177"
             y="134.765"
             x="223.43201"
             xlink:href="#textext-35e23fdb-1"
             style="fill:#003366"
             width="1052.3622"
             height="744.09448" />
        </g>
      </g>
    </g>
  </g>
</svg>
